<svg fill="#ffd76a" width="125" height="35" version="1.1" viewBox="0 0 33.073 9.2604" xmlns="http://www.w3.org/2000/svg">
 <g transform="matrix(2.4253 0 0 2.4253 520.74 567.51)" stroke-width=".26458" >
  <path d="m-213.95-233.75v2.5074h-0.59339v-2.5074zm0.70736 2.5074-0.68927-1.3387 0.68566-1.1687h0.62233l-0.70917 1.1253 0.77792 1.3822z"/>
  <path d="m-210.71-231.79q0 0.10674 0.029 0.15739 0.0289 0.0489 0.0977 0.0742l-0.1176 0.37629q-0.17548-0.0163-0.29126-0.076-0.11398-0.0615-0.1791-0.17729-0.10674 0.12845-0.2768 0.19538-0.16825 0.0651-0.35639 0.0651-0.19539 0-0.34374-0.076-0.14653-0.0778-0.22613-0.21348-0.0796-0.13749-0.0796-0.31478 0-0.20624 0.11036-0.35278t0.32021-0.22252q0.20986-0.0778 0.50475-0.0778h0.2587v-0.0724q0-0.29488-0.37991-0.29488-0.0959 0-0.24243 0.0271-0.14472 0.0271-0.28403 0.0742l-0.13206-0.37992q0.18091-0.0687 0.38172-0.10492 0.20081-0.038 0.36725-0.038 0.42333 0 0.63138 0.17187t0.20805 0.50655zm-0.89732 0.20624q0.0977 0 0.19719-0.0561 0.0995-0.0579 0.15016-0.15559v-0.31116h-0.14111q-0.23519 0-0.34916 0.0724t-0.11397 0.21529q0 0.11216 0.0669 0.17367 0.0687 0.0615 0.18996 0.0615z"/>
  <path d="m-210.17-231.58q0-0.10855 0.0543-0.20081 0.0543-0.0923 0.14653-0.14654 0.0941-0.0561 0.20262-0.0561 0.10855 0 0.20082 0.0561 0.0941 0.0543 0.14834 0.14654 0.0543 0.0923 0.0543 0.20081 0 0.10855-0.0543 0.20081-0.0543 0.0923-0.14834 0.14654-0.0923 0.0561-0.20082 0.0561-0.10854 0-0.20262-0.0561-0.0923-0.0543-0.14653-0.14654-0.0543-0.0923-0.0543-0.20081z"/>
  <path d="m-207.52-231.35q-0.12121 0.0796-0.28222 0.12663-0.1592 0.047-0.34735 0.047-0.36906 0-0.55539-0.18815-0.18634-0.18814-0.18634-0.52826v-0.87199h-0.40343v-0.39439h0.40343v-0.41609l0.57168-0.0687v0.48484h0.61871l-0.0561 0.39439h-0.56263v0.87199q0 0.14292 0.0633 0.20443 0.0651 0.0615 0.20985 0.0615 0.18091 0 0.3365-0.0868z"/>
  <path d="m-206.02-231.24q-0.13026 0.38896-0.38715 0.58434-0.2569 0.1972-0.68928 0.22072l-0.0651-0.40344q0.18814-0.0235 0.30393-0.0705 0.11759-0.0452 0.18814-0.12483 0.0724-0.0778 0.12664-0.20624h-0.19538l-0.60967-1.9213h0.60424l0.37268 1.5558 0.40524-1.5558h0.58615z"/>
  <path d="m-204.01-233.22q0.36363 0 0.53188 0.26594 0.17006 0.26413 0.17006 0.75259 0 0.29851-0.0887 0.53188-0.0868 0.23157-0.25328 0.36364-0.16643 0.13206-0.39619 0.13206-0.28041 0-0.4559-0.20081v0.88104l-0.57168 0.0597v-2.7227h0.50655l0.0253 0.21529q0.11217-0.14292 0.24966-0.20986 0.13749-0.0687 0.28222-0.0687zm-0.17729 0.42153q-0.0959 0-0.17368 0.0579-0.076 0.0561-0.14111 0.16463v0.81048q0.0615 0.0905 0.12664 0.13207 0.0669 0.0398 0.15558 0.0398 0.1574 0 0.23881-0.14292 0.0832-0.14292 0.0832-0.45771 0-0.23157-0.0344-0.36363-0.0326-0.13388-0.0959-0.18634-0.0633-0.0543-0.1592-0.0543z"/>
  <path d="m-202.5-232.03q0.0271 0.22614 0.14835 0.33288 0.12121 0.10673 0.31297 0.10673 0.24423 0 0.49208-0.1592l0.22976 0.31117q-0.14292 0.12302-0.3383 0.19358-0.19358 0.0706-0.42876 0.0706-0.32203 0-0.54636-0.12845-0.22433-0.12844-0.3383-0.3582-0.11397-0.23157-0.11397-0.53369 0-0.28765 0.11035-0.52102 0.11036-0.23338 0.32202-0.36906 0.21167-0.13569 0.50475-0.13569 0.27317 0 0.47579 0.1176 0.20443 0.11759 0.31479 0.34011 0.11035 0.22252 0.11035 0.52826 0 0.11759-0.0109 0.20443zm0.35459-0.80686q-0.1574 0-0.25147 0.11397-0.0923 0.11397-0.11036 0.34916h0.70556q-5e-3 -0.46313-0.34373-0.46313z"/>
 </g>
</svg>
